<?xml version="1.0" standalone="no"?>
<svg xmlns:xlink="http://www.w3.org/1999/xlink" id="wave" style="transform:rotate(0deg); transition: 0.3s" viewBox="0 0 1440 410" version="1.1" xmlns="http://www.w3.org/2000/svg"><defs><linearGradient id="sw-gradient-0" x1="0" x2="0" y1="1" y2="0"><stop stop-color="rgba(167, 0, 255, 1)" offset="0%"/><stop stop-color="rgba(77, 25, 219, 1)" offset="100%"/></linearGradient></defs><path style="transform:translate(0, 0px); opacity:1" fill="url(#sw-gradient-0)" d="M0,164L60,143.5C120,123,240,82,360,88.8C480,96,600,150,720,205C840,260,960,314,1080,307.5C1200,301,1320,232,1440,218.7C1560,205,1680,246,1800,225.5C1920,205,2040,123,2160,123C2280,123,2400,205,2520,211.8C2640,219,2760,150,2880,143.5C3000,137,3120,191,3240,211.8C3360,232,3480,219,3600,198.2C3720,178,3840,150,3960,157.2C4080,164,4200,205,4320,218.7C4440,232,4560,219,4680,198.2C4800,178,4920,150,5040,129.8C5160,109,5280,96,5400,116.2C5520,137,5640,191,5760,232.3C5880,273,6000,301,6120,307.5C6240,314,6360,301,6480,252.8C6600,205,6720,123,6840,75.2C6960,27,7080,14,7200,13.7C7320,14,7440,27,7560,75.2C7680,123,7800,205,7920,205C8040,205,8160,123,8280,88.8C8400,55,8520,68,8580,75.2L8640,82L8640,410L8580,410C8520,410,8400,410,8280,410C8160,410,8040,410,7920,410C7800,410,7680,410,7560,410C7440,410,7320,410,7200,410C7080,410,6960,410,6840,410C6720,410,6600,410,6480,410C6360,410,6240,410,6120,410C6000,410,5880,410,5760,410C5640,410,5520,410,5400,410C5280,410,5160,410,5040,410C4920,410,4800,410,4680,410C4560,410,4440,410,4320,410C4200,410,4080,410,3960,410C3840,410,3720,410,3600,410C3480,410,3360,410,3240,410C3120,410,3000,410,2880,410C2760,410,2640,410,2520,410C2400,410,2280,410,2160,410C2040,410,1920,410,1800,410C1680,410,1560,410,1440,410C1320,410,1200,410,1080,410C960,410,840,410,720,410C600,410,480,410,360,410C240,410,120,410,60,410L0,410Z"/></svg>